<svg width="50" height="49" viewBox="0 0 50 49" fill="none" xmlns="http://www.w3.org/2000/svg">
<path d="M35.9949 21.4693C35.3864 22.0815 34.9205 22.8203 34.6302 23.6331C34.3399 24.4459 34.2325 25.3128 34.3155 26.1719L34.2866 26.143C34.372 27.1543 34.2355 28.1719 33.887 29.1251C33.5384 30.0781 32.9861 30.9437 32.2686 31.6614C31.5509 32.3789 30.6854 32.9313 29.7322 33.2797C28.7791 33.6283 27.7614 33.7648 26.7502 33.6793L26.7791 33.7082C25.5695 33.5957 24.3546 33.8588 23.2999 34.462C22.2454 35.0652 21.4025 35.979 20.8863 37.0787C20.3702 38.1785 20.2056 39.4106 20.4153 40.6074C20.6251 41.804 21.1988 42.9068 22.0582 43.7655C22.9177 44.6241 24.021 45.1968 25.2177 45.4053C26.4147 45.6141 27.6466 45.4484 28.7459 44.9312C29.8452 44.4139 30.7581 43.5704 31.3603 42.5152C31.9626 41.4601 32.2248 40.245 32.1111 39.0354L32.1416 39.0643C32.0562 38.0531 32.1925 37.0354 32.5411 36.0822C32.8896 35.1291 33.4421 34.2636 34.1596 33.5459C34.8773 32.8284 35.7428 32.276 36.6959 31.9276C37.6491 31.579 38.6666 31.4425 39.678 31.5279L39.6475 31.499C40.6355 31.5878 41.6301 31.4258 42.539 31.028C43.4478 30.6301 44.2415 30.0093 44.8465 29.223C45.4515 28.4368 45.8483 27.5104 45.9999 26.5301C46.1516 25.5496 46.0534 24.5468 45.7143 23.6143C45.3752 22.6819 44.8062 21.8503 44.0601 21.1963C43.314 20.5424 42.4149 20.0874 41.4461 19.8735C40.4774 19.6597 39.4702 19.6937 38.5181 19.9726C37.566 20.2516 36.6999 20.7664 35.9997 21.4693H35.9949Z" fill="#22282B"/>
<path d="M24.1506 29.9226L24.1201 29.8937C24.9796 29.9803 25.8475 29.8748 26.6614 29.5848C27.475 29.2949 28.2142 28.8278 28.8253 28.2172C29.4362 27.6067 29.904 26.8678 30.1945 26.0543C30.4851 25.2407 30.5912 24.373 30.5053 23.5134L30.5358 23.5423C30.4504 22.5309 30.5869 21.5133 30.9353 20.5601C31.2838 19.6071 31.8363 18.7416 32.5538 18.0239C33.2715 17.3064 34.137 16.7539 35.0901 16.4055C36.0433 16.0569 37.0609 15.9205 38.0722 16.0059L38.0417 15.977C39.2515 16.0907 40.4667 15.8282 41.5218 15.2258C42.5772 14.6233 43.4207 13.7099 43.9377 12.6103C44.4547 11.5108 44.6199 10.2785 44.4108 9.08155C44.2018 7.88461 43.6286 6.78132 42.7693 5.92214C41.9102 5.06297 40.8069 4.48973 39.61 4.28066C38.413 4.07157 37.1808 4.23679 36.0812 4.75381C34.9815 5.2708 34.0683 6.11443 33.4658 7.1696C32.8632 8.22476 32.6009 9.4401 32.7145 10.6498L32.6856 10.6193C32.7712 11.6306 32.6351 12.6484 32.2867 13.6017C31.9383 14.5549 31.3858 15.4206 30.6683 16.1383C29.9506 16.8559 29.0849 17.4083 28.1317 17.7567C27.1783 18.1051 26.1606 18.2413 25.1493 18.1557L25.1782 18.1862C24.3187 18.0997 23.4506 18.2051 22.6369 18.4951C21.8232 18.7849 21.0841 19.2521 20.473 19.8627C19.8619 20.4733 19.3942 21.2121 19.1036 22.0257C18.8132 22.8392 18.7071 23.707 18.793 24.5666L18.7641 24.5377C18.8492 25.5488 18.7125 26.5664 18.364 27.5195C18.0152 28.4724 17.4629 29.3379 16.7454 30.0554C16.0279 30.7729 15.1624 31.3252 14.2094 31.674C13.2564 32.0225 12.2389 32.1591 11.2277 32.074L11.2566 32.1029C10.0469 31.9893 8.83152 32.2516 7.77635 32.8542C6.7212 33.4567 5.87757 34.37 5.36057 35.4696C4.84356 36.5692 4.67832 37.8015 4.88741 38.9984C5.0965 40.1953 5.66973 41.2986 6.5289 42.1577C7.38809 43.017 8.49138 43.5902 9.68832 43.7992C10.8853 44.0083 12.1175 43.8431 13.2171 43.3261C14.3167 42.8091 15.23 41.9656 15.8325 40.9104C16.4351 39.8551 16.6974 38.6399 16.5838 37.4301L16.6143 37.459C16.5288 36.4477 16.6653 35.4301 17.0139 34.4769C17.3623 33.5238 17.9147 32.6583 18.6323 31.9406C19.3499 31.2231 20.2155 30.6707 21.1685 30.3223C22.1217 29.9737 23.1393 29.8372 24.1506 29.9226Z" fill="#22282B"/>
<path d="M13.3903 26.6995C13.9988 26.0874 14.4647 25.3486 14.7547 24.5357C15.0447 23.7228 15.1517 22.8558 15.068 21.9968L15.0985 22.0257C15.0131 21.0143 15.1495 19.9962 15.4983 19.0428C15.847 18.0895 16.3997 17.2238 17.1177 16.5061C17.8357 15.7885 18.7015 15.2362 19.655 14.8878C20.6086 14.5395 21.6266 14.4035 22.6381 14.4894L22.6076 14.4605C23.8169 14.5738 25.0318 14.3113 26.0865 13.7088C27.1412 13.1064 27.9842 12.1933 28.501 11.0941C29.0177 9.99481 29.1827 8.76297 28.9737 7.56648C28.7647 6.36999 28.1915 5.26711 27.3327 4.40825C26.4739 3.54939 25.3709 2.97634 24.1745 2.76727C22.978 2.55818 21.7461 2.72326 20.6469 3.23995C19.5476 3.75665 18.6346 4.59982 18.0322 5.6545C17.4296 6.70917 17.1671 7.92401 17.2805 9.13333L17.2516 9.10443C17.337 10.1157 17.2005 11.1334 16.8519 12.0865C16.5034 13.0396 15.9511 13.9051 15.2335 14.6228C14.5159 15.3404 13.6503 15.8927 12.6972 16.2412C11.7441 16.5897 10.7264 16.7262 9.71519 16.6408L9.74409 16.6697C8.756 16.5811 7.76152 16.7434 6.85282 17.1414C5.94412 17.5394 5.15058 18.1604 4.54576 18.9468C3.94094 19.733 3.54441 20.6594 3.39288 21.6398C3.24136 22.6203 3.33977 23.6231 3.67897 24.5553C4.01817 25.4876 4.58722 26.3191 5.33336 26.9729C6.0795 27.6268 6.97859 28.0817 7.94734 28.2955C8.91607 28.5092 9.92311 28.475 10.8751 28.1961C11.8272 27.9171 12.6933 27.4024 13.3934 26.6995H13.3903Z" fill="#22282B"/>
</svg>
