<svg width="52" height="52" viewBox="0 0 52 52" fill="none" xmlns="http://www.w3.org/2000/svg">
<circle cx="26" cy="26" r="26" fill="#22282B"/>
<path fill-rule="evenodd" clip-rule="evenodd" d="M26 18.25C26.4142 18.25 26.75 18.5858 26.75 19V25.25H33C33.4142 25.25 33.75 25.5858 33.75 26C33.75 26.4142 33.4142 26.75 33 26.75H26.75V33C26.75 33.4142 26.4142 33.75 26 33.75C25.5858 33.75 25.25 33.4142 25.25 33V26.75H19C18.5858 26.75 18.25 26.4142 18.25 26C18.25 25.5858 18.5858 25.25 19 25.25H25.25V19C25.25 18.5858 25.5858 18.25 26 18.25Z" fill="white"/>
</svg>
