<svg width="18" height="18" viewBox="0 0 18 18" fill="none" xmlns="http://www.w3.org/2000/svg">
<path d="M2.29484 6.1756L7.68148 1.95574C8.45715 1.34809 9.54331 1.34809 10.319 1.95574L15.7056 6.1756C16.3205 6.65731 16.4913 7.37427 16.4999 8.20295C16.5003 8.24787 16.4989 8.29129 16.4955 8.33608C16.4607 8.7957 16.2197 11.6041 15.3293 14.757C15.0147 15.6346 14.2743 16.5 13.2558 16.5H4.74469C3.72615 16.5 2.98581 15.6346 2.67115 14.757C1.78075 11.6041 1.53981 8.79569 1.50496 8.33608C1.50156 8.29129 1.50011 8.24787 1.50057 8.20295C1.50913 7.37427 1.67994 6.65731 2.29484 6.1756Z" stroke="#22282B" stroke-width="1.5" stroke-linecap="round"/>
</svg>
